<svg width="41" height="40" viewBox="0 0 41 40" fill="none" xmlns="http://www.w3.org/2000/svg">
<path d="M33.6407 18.3333H6.80739C5.93294 18.3333 5.22406 19.0421 5.22406 19.9166V20.0833C5.22406 20.9577 5.93294 21.6666 6.80739 21.6666H33.6407C34.5152 21.6666 35.2241 20.9577 35.2241 20.0833V19.9166C35.2241 19.0421 34.5152 18.3333 33.6407 18.3333Z" fill="#F16725"/>
<path d="M33.6407 26.6667H6.80739C5.93294 26.6667 5.22406 27.3756 5.22406 28.2501V28.4167C5.22406 29.2912 5.93294 30.0001 6.80739 30.0001H33.6407C34.5152 30.0001 35.2241 29.2912 35.2241 28.4167V28.2501C35.2241 27.3756 34.5152 26.6667 33.6407 26.6667Z" fill="#F16725"/>
<path d="M33.6407 10H6.80739C5.93294 10 5.22406 10.7089 5.22406 11.5833V11.75C5.22406 12.6245 5.93294 13.3333 6.80739 13.3333H33.6407C34.5152 13.3333 35.2241 12.6245 35.2241 11.75V11.5833C35.2241 10.7089 34.5152 10 33.6407 10Z" fill="#F16725"/>
</svg>
